{"glyphs":{"0":{"ha":1389,"x_min":0,"x_max":1190,"o":"m 793 198 l 793 1190 l 397 1190 l 397 198 l 793 198 m 198 0 l 198 198 l 0 198 l 0 1190 l 198 1190 l 198 1389 l 992 1389 l 992 1190 l 1190 1190 l 1190 198 l 992 198 l 992 0 l 198 0 z "},"1":{"ha":992,"x_min":0,"x_max":793,"o":"m 0 0 l 0 198 l 198 198 l 198 992 l 0 992 l 0 1190 l 198 1190 l 198 1389 l 595 1389 l 595 198 l 793 198 l 793 0 l 0 0 z "},"2":{"ha":1389,"x_min":0,"x_max":1190,"o":"m 0 0 l 0 595 l 198 595 l 198 793 l 793 793 l 793 1190 l 397 1190 l 397 992 l 0 992 l 0 1190 l 198 1190 l 198 1389 l 992 1389 l 992 1190 l 1190 1190 l 1190 793 l 992 793 l 992 595 l 397 595 l 397 198 l 1190 198 l 1190 0 l 0 0 z "},"3":{"ha":1389,"x_min":0,"x_max":1190,"o":"m 198 0 l 198 198 l 0 198 l 0 397 l 397 397 l 397 198 l 793 198 l 793 595 l 397 595 l 397 793 l 793 793 l 793 1190 l 397 1190 l 397 992 l 0 992 l 0 1190 l 198 1190 l 198 1389 l 992 1389 l 992 1190 l 1190 1190 l 1190 793 l 992 793 l 992 595 l 1190 595 l 1190 198 l 992 198 l 992 0 l 198 0 z "},"4":{"ha":1389,"x_min":0,"x_max":1190,"o":"m 397 992 l 397 397 l 595 397 l 595 992 l 397 992 m 397 992 l 397 1190 l 595 1190 l 595 1389 l 992 1389 l 992 397 l 1190 397 l 1190 198 l 992 198 l 992 0 l 595 0 l 595 198 l 0 198 l 0 793 l 198 793 l 198 992 l 397 992 z "},"5":{"ha":1389,"x_min":0,"x_max":1190,"o":"m 198 0 l 198 198 l 0 198 l 0 397 l 397 397 l 397 198 l 793 198 l 793 793 l 0 793 l 0 1389 l 1190 1389 l 1190 1190 l 397 1190 l 397 992 l 992 992 l 992 793 l 1190 793 l 1190 198 l 992 198 l 992 0 l 198 0 z "},"6":{"ha":1389,"x_min":0,"x_max":1190,"o":"m 793 198 l 793 595 l 397 595 l 397 198 l 793 198 m 198 0 l 198 198 l 0 198 l 0 1190 l 198 1190 l 198 1389 l 992 1389 l 992 1190 l 1190 1190 l 1190 992 l 793 992 l 793 1190 l 397 1190 l 397 793 l 992 793 l 992 595 l 1190 595 l 1190 198 l 992 198 l 992 0 l 198 0 z "},"7":{"ha":1389,"x_min":0,"x_max":1190,"o":"m 397 0 l 397 397 l 595 397 l 595 793 l 793 793 l 793 1190 l 0 1190 l 0 1389 l 1190 1389 l 1190 793 l 992 793 l 992 397 l 793 397 l 793 0 l 397 0 z "},"8":{"ha":1389,"x_min":0,"x_max":1190,"o":"m 793 198 l 793 595 l 397 595 l 397 198 l 793 198 m 793 793 l 793 1190 l 397 1190 l 397 793 l 793 793 m 198 0 l 198 198 l 0 198 l 0 595 l 198 595 l 198 793 l 0 793 l 0 1190 l 198 1190 l 198 1389 l 992 1389 l 992 1190 l 1190 1190 l 1190 793 l 992 793 l 992 595 l 1190 595 l 1190 198 l 992 198 l 992 0 l 198 0 z "},"9":{"ha":1389,"x_min":0,"x_max":1190,"o":"m 793 793 l 793 1190 l 397 1190 l 397 793 l 793 793 m 198 0 l 198 198 l 0 198 l 0 397 l 397 397 l 397 198 l 793 198 l 793 595 l 198 595 l 198 793 l 0 793 l 0 1190 l 198 1190 l 198 1389 l 992 1389 l 992 1190 l 1190 1190 l 1190 198 l 992 198 l 992 0 l 198 0 z "}," ":{"ha":595,"x_min":0,"x_max":0,"o":""},"!":{"ha":595,"x_min":0,"x_max":397,"o":"m 0 0 l 0 198 l 397 198 l 397 0 l 0 0 m 0 397 l 0 1389 l 397 1389 l 397 397 l 0 397 z "},"\"":{"ha":1190,"x_min":0,"x_max":992,"o":"m 0 595 l 0 793 l 198 793 l 198 595 l 0 595 m 595 595 l 595 793 l 793 793 l 793 595 l 595 595 m 198 793 l 198 992 l 0 992 l 0 1389 l 397 1389 l 397 793 l 198 793 m 793 793 l 793 992 l 595 992 l 595 1389 l 992 1389 l 992 793 l 793 793 z "},"#":{"ha":1587,"x_min":0,"x_max":1389,"o":"m 793 595 l 793 793 l 595 793 l 595 595 l 793 595 m 198 0 l 198 397 l 0 397 l 0 595 l 198 595 l 198 793 l 0 793 l 0 992 l 198 992 l 198 1389 l 595 1389 l 595 992 l 793 992 l 793 1389 l 1190 1389 l 1190 992 l 1389 992 l 1389 793 l 1190 793 l 1190 595 l 1389 595 l 1389 397 l 1190 397 l 1190 0 l 793 0 l 793 397 l 595 397 l 595 0 l 198 0 z "},"$":{"ha":1587,"x_min":0,"x_max":1389,"o":"m 992 397 l 992 595 l 793 595 l 793 397 l 992 397 m 595 793 l 595 992 l 397 992 l 397 793 l 595 793 m 595 0 l 595 198 l 198 198 l 198 397 l 595 397 l 595 595 l 0 595 l 0 992 l 198 992 l 198 1190 l 595 1190 l 595 1389 l 793 1389 l 793 1190 l 1190 1190 l 1190 992 l 793 992 l 793 793 l 1389 793 l 1389 397 l 1190 397 l 1190 198 l 793 198 l 793 0 l 595 0 z "},"%":{"ha":1587,"x_min":0,"x_max":1389,"o":"m 992 0 l 992 397 l 1389 397 l 1389 0 l 992 0 m 0 992 l 0 1389 l 397 1389 l 397 992 l 0 992 m 0 0 l 0 397 l 198 397 l 198 595 l 397 595 l 397 793 l 793 793 l 793 992 l 992 992 l 992 1389 l 1389 1389 l 1389 992 l 1190 992 l 1190 793 l 992 793 l 992 595 l 595 595 l 595 397 l 397 397 l 397 0 l 0 0 z "},"&":{"ha":1587,"x_min":0,"x_max":1389,"o":"m 793 198 l 793 595 l 397 595 l 397 198 l 793 198 m 793 793 l 793 1190 l 397 1190 l 397 793 l 793 793 m 793 198 l 793 0 l 198 0 l 198 198 l 0 198 l 0 595 l 198 595 l 198 793 l 0 793 l 0 1190 l 198 1190 l 198 1389 l 992 1389 l 992 1190 l 1190 1190 l 1190 793 l 992 793 l 992 595 l 1389 595 l 1389 397 l 1190 397 l 1190 198 l 1389 198 l 1389 0 l 992 0 l 992 198 l 793 198 z "},"'":{"ha":595,"x_min":0,"x_max":397,"o":"m 0 595 l 0 793 l 198 793 l 198 595 l 0 595 m 198 793 l 198 992 l 0 992 l 0 1389 l 397 1389 l 397 793 l 198 793 z "},"(":{"ha":992,"x_min":0,"x_max":793,"o":"m 397 0 l 397 198 l 198 198 l 198 397 l 0 397 l 0 992 l 198 992 l 198 1190 l 397 1190 l 397 1389 l 793 1389 l 793 1190 l 595 1190 l 595 992 l 397 992 l 397 397 l 595 397 l 595 198 l 793 198 l 793 0 l 397 0 z "},")":{"ha":992,"x_min":0,"x_max":793,"o":"m 0 0 l 0 198 l 198 198 l 198 397 l 397 397 l 397 992 l 198 992 l 198 1190 l 0 1190 l 0 1389 l 397 1389 l 397 1190 l 595 1190 l 595 992 l 793 992 l 793 397 l 595 397 l 595 198 l 397 198 l 397 0 l 0 0 z "},"*":{"ha":1587,"x_min":0,"x_max":1389,"o":"m 198 198 l 198 397 l 397 397 l 397 595 l 198 595 l 198 793 l 0 793 l 0 992 l 397 992 l 397 1190 l 595 1190 l 595 1389 l 793 1389 l 793 1190 l 992 1190 l 992 992 l 1389 992 l 1389 793 l 1190 793 l 1190 595 l 992 595 l 992 397 l 1190 397 l 1190 198 l 793 198 l 793 397 l 595 397 l 595 198 l 198 198 z "},"+":{"ha":1389,"x_min":0,"x_max":1190,"o":"m 397 198 l 397 595 l 0 595 l 0 793 l 397 793 l 397 1190 l 793 1190 l 793 793 l 1190 793 l 1190 595 l 793 595 l 793 198 l 397 198 z "},",":{"ha":793,"x_min":0,"x_max":595,"o":"m 0 0 l 0 198 l 198 198 l 198 397 l 595 397 l 595 0 l 0 0 z "},"-":{"ha":1389,"x_min":0,"x_max":1190,"o":"m 0 595 l 0 793 l 1190 793 l 1190 595 l 0 595 z "},".":{"ha":595,"x_min":0,"x_max":397,"o":"m 0 0 l 0 397 l 397 397 l 397 0 l 0 0 z "},"/":{"ha":1389,"x_min":0,"x_max":1190,"o":"m 0 0 l 0 397 l 198 397 l 198 595 l 397 595 l 397 793 l 595 793 l 595 992 l 793 992 l 793 1389 l 1190 1389 l 1190 992 l 992 992 l 992 793 l 793 793 l 793 595 l 595 595 l 595 397 l 397 397 l 397 0 l 0 0 z "},":":{"ha":595,"x_min":0,"x_max":397,"o":"m 0 0 l 0 397 l 397 397 l 397 0 l 0 0 m 0 793 l 0 1190 l 397 1190 l 397 793 l 0 793 z "},";":{"ha":793,"x_min":0,"x_max":595,"o":"m 0 0 l 0 198 l 198 198 l 198 397 l 595 397 l 595 0 l 0 0 m 198 793 l 198 1190 l 595 1190 l 595 793 l 198 793 z "},"<":{"ha":1190,"x_min":0,"x_max":992,"o":"m 595 0 l 595 198 l 397 198 l 397 397 l 198 397 l 198 595 l 0 595 l 0 793 l 198 793 l 198 992 l 397 992 l 397 1190 l 595 1190 l 595 1389 l 992 1389 l 992 1190 l 793 1190 l 793 992 l 595 992 l 595 793 l 397 793 l 397 595 l 595 595 l 595 397 l 793 397 l 793 198 l 992 198 l 992 0 l 595 0 z "},"=":{"ha":1389,"x_min":0,"x_max":1190,"o":"m 0 397 l 0 595 l 1190 595 l 1190 397 l 0 397 m 0 793 l 0 992 l 1190 992 l 1190 793 l 0 793 z "},">":{"ha":1190,"x_min":0,"x_max":992,"o":"m 0 0 l 0 198 l 198 198 l 198 397 l 397 397 l 397 595 l 595 595 l 595 793 l 397 793 l 397 992 l 198 992 l 198 1190 l 0 1190 l 0 1389 l 397 1389 l 397 1190 l 595 1190 l 595 992 l 793 992 l 793 793 l 992 793 l 992 595 l 793 595 l 793 397 l 595 397 l 595 198 l 397 198 l 397 0 l 0 0 z "},"?":{"ha":1587,"x_min":0,"x_max":1389,"o":"m 397 0 l 397 198 l 793 198 l 793 0 l 397 0 m 397 397 l 397 793 l 992 793 l 992 1190 l 397 1190 l 397 992 l 0 992 l 0 1190 l 198 1190 l 198 1389 l 1190 1389 l 1190 1190 l 1389 1190 l 1389 793 l 1190 793 l 1190 595 l 793 595 l 793 397 l 397 397 z "},"@":{"ha":1587,"x_min":0,"x_max":1389,"o":"m 198 0 l 198 198 l 0 198 l 0 1190 l 198 1190 l 198 1389 l 1190 1389 l 1190 1190 l 1389 1190 l 1389 595 l 1190 595 l 1190 397 l 595 397 l 595 595 l 992 595 l 992 1190 l 397 1190 l 397 198 l 1190 198 l 1190 0 l 198 0 z "},"A":{"ha":1587,"x_min":0,"x_max":1389,"o":"m 992 595 l 992 992 l 793 992 l 793 1190 l 595 1190 l 595 992 l 397 992 l 397 595 l 992 595 m 0 0 l 0 992 l 198 992 l 198 1190 l 397 1190 l 397 1389 l 992 1389 l 992 1190 l 1190 1190 l 1190 992 l 1389 992 l 1389 0 l 992 0 l 992 397 l 397 397 l 397 0 l 0 0 z "},"B":{"ha":1587,"x_min":0,"x_max":1389,"o":"m 992 198 l 992 595 l 397 595 l 397 198 l 992 198 m 793 793 l 793 1190 l 397 1190 l 397 793 l 793 793 m 0 0 l 0 1389 l 992 1389 l 992 1190 l 1190 1190 l 1190 595 l 1389 595 l 1389 198 l 1190 198 l 1190 0 l 0 0 z "},"C":{"ha":1587,"x_min":0,"x_max":1389,"o":"m 198 0 l 198 198 l 0 198 l 0 1190 l 198 1190 l 198 1389 l 1190 1389 l 1190 1190 l 1389 1190 l 1389 992 l 992 992 l 992 1190 l 397 1190 l 397 198 l 992 198 l 992 397 l 1389 397 l 1389 198 l 1190 198 l 1190 0 l 198 0 z "},"D":{"ha":1587,"x_min":0,"x_max":1389,"o":"m 992 198 l 992 1190 l 397 1190 l 397 198 l 992 198 m 0 0 l 0 1389 l 1190 1389 l 1190 1190 l 1389 1190 l 1389 198 l 1190 198 l 1190 0 l 0 0 z "},"E":{"ha":1587,"x_min":0,"x_max":1389,"o":"m 0 0 l 0 1389 l 1389 1389 l 1389 1190 l 397 1190 l 397 793 l 1190 793 l 1190 595 l 397 595 l 397 198 l 1389 198 l 1389 0 l 0 0 z "},"F":{"ha":1587,"x_min":0,"x_max":1389,"o":"m 0 0 l 0 1389 l 1389 1389 l 1389 1190 l 397 1190 l 397 793 l 1190 793 l 1190 595 l 397 595 l 397 0 l 0 0 z "},"G":{"ha":1587,"x_min":0,"x_max":1389,"o":"m 198 0 l 198 198 l 0 198 l 0 1190 l 198 1190 l 198 1389 l 1190 1389 l 1190 1190 l 1389 1190 l 1389 992 l 992 992 l 992 1190 l 397 1190 l 397 198 l 992 198 l 992 595 l 595 595 l 595 793 l 1389 793 l 1389 198 l 1190 198 l 1190 0 l 198 0 z "},"H":{"ha":1587,"x_min":0,"x_max":1389,"o":"m 0 0 l 0 1389 l 397 1389 l 397 793 l 992 793 l 992 1389 l 1389 1389 l 1389 0 l 992 0 l 992 595 l 397 595 l 397 0 l 0 0 z "},"I":{"ha":992,"x_min":0,"x_max":793,"o":"m 0 0 l 0 198 l 198 198 l 198 1190 l 0 1190 l 0 1389 l 793 1389 l 793 1190 l 595 1190 l 595 198 l 793 198 l 793 0 l 0 0 z "},"J":{"ha":1587,"x_min":0,"x_max":1389,"o":"m 198 0 l 198 198 l 0 198 l 0 397 l 397 397 l 397 198 l 992 198 l 992 1190 l 0 1190 l 0 1389 l 1389 1389 l 1389 198 l 1190 198 l 1190 0 l 198 0 z "},"K":{"ha":1587,"x_min":0,"x_max":1389,"o":"m 0 0 l 0 1389 l 397 1389 l 397 793 l 992 793 l 992 1389 l 1389 1389 l 1389 793 l 1190 793 l 1190 595 l 1389 595 l 1389 0 l 992 0 l 992 595 l 397 595 l 397 0 l 0 0 z "},"L":{"ha":1587,"x_min":0,"x_max":1389,"o":"m 0 0 l 0 1389 l 397 1389 l 397 198 l 1389 198 l 1389 0 l 0 0 z "},"M":{"ha":1587,"x_min":0,"x_max":1389,"o":"m 595 595 l 595 793 l 793 793 l 793 595 l 595 595 m 0 0 l 0 1389 l 198 1389 l 198 1190 l 397 1190 l 397 992 l 595 992 l 595 793 l 397 793 l 397 0 l 0 0 m 992 0 l 992 793 l 793 793 l 793 992 l 992 992 l 992 1190 l 1190 1190 l 1190 1389 l 1389 1389 l 1389 0 l 992 0 z "},"N":{"ha":1587,"x_min":0,"x_max":1389,"o":"m 595 595 l 595 793 l 793 793 l 793 595 l 595 595 m 0 0 l 0 1389 l 198 1389 l 198 1190 l 397 1190 l 397 992 l 595 992 l 595 793 l 397 793 l 397 0 l 0 0 m 992 0 l 992 397 l 793 397 l 793 595 l 992 595 l 992 1389 l 1389 1389 l 1389 0 l 992 0 z "},"O":{"ha":1587,"x_min":0,"x_max":1389,"o":"m 992 198 l 992 1190 l 397 1190 l 397 198 l 992 198 m 198 0 l 198 198 l 0 198 l 0 1190 l 198 1190 l 198 1389 l 1190 1389 l 1190 1190 l 1389 1190 l 1389 198 l 1190 198 l 1190 0 l 198 0 z "},"P":{"ha":1587,"x_min":0,"x_max":1389,"o":"m 992 595 l 992 1190 l 397 1190 l 397 595 l 992 595 m 0 0 l 0 1389 l 1190 1389 l 1190 1190 l 1389 1190 l 1389 595 l 1190 595 l 1190 397 l 397 397 l 397 0 l 0 0 z "},"Q":{"ha":1587,"x_min":0,"x_max":1389,"o":"m 1190 0 l 1190 198 l 1389 198 l 1389 0 l 1190 0 m 992 198 l 992 397 l 1190 397 l 1190 198 l 992 198 m 793 397 l 793 595 l 992 595 l 992 397 l 793 397 m 198 0 l 198 198 l 0 198 l 0 1190 l 198 1190 l 198 1389 l 1190 1389 l 1190 1190 l 1389 1190 l 1389 397 l 1190 397 l 1190 595 l 992 595 l 992 1190 l 397 1190 l 397 198 l 992 198 l 992 0 l 198 0 z "},"R":{"ha":1587,"x_min":0,"x_max":1389,"o":"m 992 595 l 992 1190 l 397 1190 l 397 595 l 992 595 m 0 0 l 0 1389 l 1190 1389 l 1190 1190 l 1389 1190 l 1389 595 l 1190 595 l 1190 397 l 1389 397 l 1389 0 l 992 0 l 992 397 l 397 397 l 397 0 l 0 0 z "},"S":{"ha":1587,"x_min":0,"x_max":1389,"o":"m 198 0 l 198 198 l 0 198 l 0 397 l 397 397 l 397 198 l 992 198 l 992 595 l 198 595 l 198 793 l 0 793 l 0 1190 l 198 1190 l 198 1389 l 1190 1389 l 1190 1190 l 1389 1190 l 1389 992 l 992 992 l 992 1190 l 397 1190 l 397 793 l 1190 793 l 1190 595 l 1389 595 l 1389 198 l 1190 198 l 1190 0 l 198 0 z "},"T":{"ha":1389,"x_min":0,"x_max":1190,"o":"m 397 0 l 397 1190 l 0 1190 l 0 1389 l 1190 1389 l 1190 1190 l 793 1190 l 793 0 l 397 0 z "},"U":{"ha":1587,"x_min":0,"x_max":1389,"o":"m 198 0 l 198 198 l 0 198 l 0 1389 l 397 1389 l 397 198 l 992 198 l 992 1389 l 1389 1389 l 1389 198 l 1190 198 l 1190 0 l 198 0 z "},"V":{"ha":1587,"x_min":0,"x_max":1389,"o":"m 397 0 l 397 198 l 198 198 l 198 397 l 0 397 l 0 1389 l 397 1389 l 397 397 l 595 397 l 595 198 l 793 198 l 793 397 l 992 397 l 992 1389 l 1389 1389 l 1389 397 l 1190 397 l 1190 198 l 992 198 l 992 0 l 397 0 z "},"W":{"ha":1587,"x_min":0,"x_max":1389,"o":"m 198 0 l 198 198 l 0 198 l 0 1389 l 397 1389 l 397 198 l 595 198 l 595 1389 l 793 1389 l 793 198 l 992 198 l 992 1389 l 1389 1389 l 1389 198 l 1190 198 l 1190 0 l 198 0 z "},"X":{"ha":1587,"x_min":0,"x_max":1389,"o":"m 0 0 l 0 397 l 198 397 l 198 595 l 397 595 l 397 793 l 198 793 l 198 992 l 0 992 l 0 1389 l 397 1389 l 397 992 l 595 992 l 595 793 l 793 793 l 793 992 l 992 992 l 992 1389 l 1389 1389 l 1389 992 l 1190 992 l 1190 793 l 992 793 l 992 595 l 1190 595 l 1190 397 l 1389 397 l 1389 0 l 992 0 l 992 397 l 793 397 l 793 595 l 595 595 l 595 397 l 397 397 l 397 0 l 0 0 z "},"Y":{"ha":1389,"x_min":0,"x_max":1190,"o":"m 397 0 l 397 595 l 198 595 l 198 793 l 0 793 l 0 1389 l 397 1389 l 397 793 l 793 793 l 793 1389 l 1190 1389 l 1190 793 l 992 793 l 992 595 l 793 595 l 793 0 l 397 0 z "},"Z":{"ha":1389,"x_min":0,"x_max":1190,"o":"m 0 0 l 0 397 l 198 397 l 198 595 l 397 595 l 397 793 l 595 793 l 595 992 l 793 992 l 793 1190 l 0 1190 l 0 1389 l 1190 1389 l 1190 992 l 992 992 l 992 793 l 793 793 l 793 595 l 595 595 l 595 397 l 397 397 l 397 198 l 1190 198 l 1190 0 l 0 0 z "},"[":{"ha":793,"x_min":0,"x_max":595,"o":"m 0 0 l 0 1389 l 595 1389 l 595 1190 l 397 1190 l 397 198 l 595 198 l 595 0 l 0 0 z "},"\\":{"ha":1389,"x_min":0,"x_max":1190,"o":"m 793 0 l 793 397 l 595 397 l 595 595 l 397 595 l 397 793 l 198 793 l 198 992 l 0 992 l 0 1389 l 397 1389 l 397 992 l 595 992 l 595 793 l 793 793 l 793 595 l 992 595 l 992 397 l 1190 397 l 1190 0 l 793 0 z "},"]":{"ha":793,"x_min":0,"x_max":595,"o":"m 0 0 l 0 198 l 198 198 l 198 1190 l 0 1190 l 0 1389 l 595 1389 l 595 0 l 0 0 z "},"^":{"ha":1587,"x_min":0,"x_max":1389,"o":"m 0 397 l 0 793 l 198 793 l 198 992 l 397 992 l 397 1190 l 595 1190 l 595 1389 l 793 1389 l 793 1190 l 992 1190 l 992 992 l 1190 992 l 1190 793 l 1389 793 l 1389 397 l 1190 397 l 1190 595 l 992 595 l 992 793 l 793 793 l 793 992 l 595 992 l 595 793 l 397 793 l 397 595 l 198 595 l 198 397 l 0 397 z "},"_":{"ha":1587,"x_min":0,"x_max":1389,"o":"m 0 0 l 0 198 l 1389 198 l 1389 0 l 0 0 z "},"`":{"ha":793,"x_min":0,"x_max":595,"o":"m 198 992 l 198 1190 l 0 1190 l 0 1389 l 397 1389 l 397 1190 l 595 1190 l 595 992 l 198 992 z "},"a":{"ha":1587,"x_min":0,"x_max":1389,"o":"m 992 198 l 992 595 l 397 595 l 397 198 l 992 198 m 992 198 l 992 0 l 198 0 l 198 198 l 0 198 l 0 595 l 198 595 l 198 793 l 992 793 l 992 992 l 198 992 l 198 1190 l 1190 1190 l 1190 992 l 1389 992 l 1389 0 l 1190 0 l 1190 198 l 992 198 z "},"b":{"ha":1587,"x_min":0,"x_max":1389,"o":"m 992 198 l 992 793 l 397 793 l 397 198 l 992 198 m 198 0 l 198 198 l 0 198 l 0 1389 l 397 1389 l 397 992 l 1190 992 l 1190 793 l 1389 793 l 1389 198 l 1190 198 l 1190 0 l 198 0 z "},"c":{"ha":1587,"x_min":0,"x_max":1389,"o":"m 198 0 l 198 198 l 0 198 l 0 992 l 198 992 l 198 1190 l 1190 1190 l 1190 992 l 1389 992 l 1389 793 l 992 793 l 992 992 l 397 992 l 397 198 l 992 198 l 992 397 l 1389 397 l 1389 198 l 1190 198 l 1190 0 l 198 0 z "},"d":{"ha":1587,"x_min":0,"x_max":1389,"o":"m 992 198 l 992 793 l 397 793 l 397 198 l 992 198 m 992 198 l 992 0 l 198 0 l 198 198 l 0 198 l 0 793 l 198 793 l 198 992 l 992 992 l 992 1389 l 1389 1389 l 1389 0 l 1190 0 l 1190 198 l 992 198 z "},"e":{"ha":1587,"x_min":0,"x_max":1389,"o":"m 992 595 l 992 992 l 397 992 l 397 595 l 992 595 m 198 0 l 198 198 l 0 198 l 0 992 l 198 992 l 198 1190 l 1190 1190 l 1190 992 l 1389 992 l 1389 595 l 1190 595 l 1190 397 l 397 397 l 397 198 l 1190 198 l 1190 0 l 198 0 z "},"f":{"ha":1587,"x_min":0,"x_max":1389,"o":"m 198 0 l 198 198 l 0 198 l 0 397 l 198 397 l 198 992 l 397 992 l 397 1190 l 1190 1190 l 1190 992 l 1389 992 l 1389 595 l 992 595 l 992 992 l 595 992 l 595 397 l 992 397 l 992 198 l 595 198 l 595 0 l 198 0 z "},"g":{"ha":1587,"x_min":0,"x_max":1389,"o":"m 992 595 l 992 992 l 397 992 l 397 595 l 992 595 m 198 0 l 198 198 l 992 198 l 992 397 l 198 397 l 198 595 l 0 595 l 0 992 l 198 992 l 198 1190 l 1190 1190 l 1190 992 l 1389 992 l 1389 198 l 1190 198 l 1190 0 l 198 0 z "},"h":{"ha":1587,"x_min":0,"x_max":1389,"o":"m 992 0 l 992 793 l 595 793 l 595 992 l 1190 992 l 1190 793 l 1389 793 l 1389 0 l 992 0 m 0 0 l 0 1389 l 397 1389 l 397 793 l 595 793 l 595 595 l 397 595 l 397 0 l 0 0 z "},"i":{"ha":793,"x_min":0,"x_max":595,"o":"m 198 0 l 198 198 l 0 198 l 0 992 l 397 992 l 397 198 l 595 198 l 595 0 l 198 0 m 0 1190 l 0 1389 l 397 1389 l 397 1190 l 0 1190 z "},"j":{"ha":1190,"x_min":0,"x_max":992,"o":"m 0 0 l 0 198 l 595 198 l 595 992 l 992 992 l 992 198 l 793 198 l 793 0 l 0 0 m 595 1190 l 595 1389 l 992 1389 l 992 1190 l 595 1190 z "},"k":{"ha":1587,"x_min":0,"x_max":1389,"o":"m 0 0 l 0 1389 l 397 1389 l 397 793 l 793 793 l 793 992 l 992 992 l 992 1190 l 1389 1190 l 1389 992 l 1190 992 l 1190 793 l 992 793 l 992 595 l 1190 595 l 1190 397 l 1389 397 l 1389 0 l 992 0 l 992 397 l 793 397 l 793 595 l 397 595 l 397 0 l 0 0 z "},"l":{"ha":595,"x_min":0,"x_max":397,"o":"m 0 0 l 0 1389 l 397 1389 l 397 0 l 0 0 z "},"m":{"ha":1587,"x_min":0,"x_max":1389,"o":"m 0 0 l 0 1190 l 1190 1190 l 1190 992 l 1389 992 l 1389 0 l 992 0 l 992 992 l 793 992 l 793 0 l 595 0 l 595 992 l 397 992 l 397 0 l 0 0 z "},"n":{"ha":1587,"x_min":0,"x_max":1389,"o":"m 0 0 l 0 1190 l 1190 1190 l 1190 992 l 1389 992 l 1389 0 l 992 0 l 992 992 l 397 992 l 397 0 l 0 0 z "},"o":{"ha":1587,"x_min":0,"x_max":1389,"o":"m 992 198 l 992 992 l 397 992 l 397 198 l 992 198 m 198 0 l 198 198 l 0 198 l 0 992 l 198 992 l 198 1190 l 1190 1190 l 1190 992 l 1389 992 l 1389 198 l 1190 198 l 1190 0 l 198 0 z "},"p":{"ha":1587,"x_min":0,"x_max":1389,"o":"m 992 397 l 992 992 l 397 992 l 397 397 l 992 397 m 0 0 l 0 992 l 198 992 l 198 1190 l 1190 1190 l 1190 992 l 1389 992 l 1389 397 l 1190 397 l 1190 198 l 397 198 l 397 0 l 0 0 z "},"q":{"ha":1587,"x_min":0,"x_max":1389,"o":"m 992 397 l 992 992 l 397 992 l 397 397 l 992 397 m 992 0 l 992 198 l 198 198 l 198 397 l 0 397 l 0 992 l 198 992 l 198 1190 l 1190 1190 l 1190 992 l 1389 992 l 1389 0 l 992 0 z "},"r":{"ha":1587,"x_min":0,"x_max":1389,"o":"m 198 0 l 198 992 l 0 992 l 0 1190 l 397 1190 l 397 992 l 595 992 l 595 0 l 198 0 m 992 595 l 992 992 l 595 992 l 595 1190 l 1190 1190 l 1190 992 l 1389 992 l 1389 595 l 992 595 z "},"s":{"ha":1587,"x_min":0,"x_max":1389,"o":"m 198 0 l 198 198 l 0 198 l 0 397 l 397 397 l 397 198 l 992 198 l 992 397 l 595 397 l 595 595 l 0 595 l 0 992 l 198 992 l 198 1190 l 1190 1190 l 1190 992 l 1389 992 l 1389 793 l 992 793 l 992 992 l 397 992 l 397 793 l 793 793 l 793 595 l 1389 595 l 1389 198 l 1190 198 l 1190 0 l 198 0 z "},"t":{"ha":1587,"x_min":0,"x_max":1389,"o":"m 397 0 l 397 198 l 198 198 l 198 793 l 0 793 l 0 992 l 198 992 l 198 1389 l 595 1389 l 595 992 l 1389 992 l 1389 793 l 595 793 l 595 198 l 992 198 l 992 595 l 1389 595 l 1389 198 l 1190 198 l 1190 0 l 397 0 z "},"u":{"ha":1587,"x_min":0,"x_max":1389,"o":"m 198 0 l 198 198 l 0 198 l 0 1190 l 397 1190 l 397 198 l 992 198 l 992 1190 l 1389 1190 l 1389 198 l 1190 198 l 1190 0 l 198 0 z "},"v":{"ha":1587,"x_min":0,"x_max":1389,"o":"m 397 0 l 397 198 l 198 198 l 198 397 l 0 397 l 0 1190 l 397 1190 l 397 397 l 595 397 l 595 198 l 793 198 l 793 397 l 992 397 l 992 1190 l 1389 1190 l 1389 397 l 1190 397 l 1190 198 l 992 198 l 992 0 l 397 0 z "},"w":{"ha":1587,"x_min":0,"x_max":1389,"o":"m 198 0 l 198 198 l 0 198 l 0 1190 l 397 1190 l 397 198 l 595 198 l 595 1190 l 793 1190 l 793 198 l 992 198 l 992 1190 l 1389 1190 l 1389 198 l 1190 198 l 1190 0 l 198 0 z "},"x":{"ha":1587,"x_min":0,"x_max":1389,"o":"m 0 0 l 0 198 l 198 198 l 198 397 l 397 397 l 397 793 l 198 793 l 198 992 l 0 992 l 0 1190 l 397 1190 l 397 992 l 595 992 l 595 793 l 793 793 l 793 992 l 992 992 l 992 1190 l 1389 1190 l 1389 992 l 1190 992 l 1190 793 l 992 793 l 992 397 l 1190 397 l 1190 198 l 1389 198 l 1389 0 l 992 0 l 992 198 l 793 198 l 793 397 l 595 397 l 595 198 l 397 198 l 397 0 l 0 0 z "},"y":{"ha":1587,"x_min":0,"x_max":1389,"o":"m 198 0 l 198 198 l 992 198 l 992 397 l 198 397 l 198 595 l 0 595 l 0 1190 l 397 1190 l 397 595 l 992 595 l 992 1190 l 1389 1190 l 1389 198 l 1190 198 l 1190 0 l 198 0 z "},"z":{"ha":1587,"x_min":0,"x_max":1389,"o":"m 0 0 l 0 198 l 198 198 l 198 397 l 397 397 l 397 595 l 595 595 l 595 793 l 793 793 l 793 992 l 0 992 l 0 1190 l 1389 1190 l 1389 992 l 1190 992 l 1190 793 l 992 793 l 992 595 l 793 595 l 793 397 l 595 397 l 595 198 l 1389 198 l 1389 0 l 0 0 z "},"{":{"ha":992,"x_min":0,"x_max":793,"o":"m 397 0 l 397 198 l 198 198 l 198 595 l 0 595 l 0 793 l 198 793 l 198 1190 l 397 1190 l 397 1389 l 793 1389 l 793 1190 l 595 1190 l 595 793 l 397 793 l 397 595 l 595 595 l 595 198 l 793 198 l 793 0 l 397 0 z "},"|":{"ha":595,"x_min":0,"x_max":397,"o":"m 0 0 l 0 1389 l 397 1389 l 397 0 l 0 0 z "},"}":{"ha":992,"x_min":0,"x_max":793,"o":"m 0 0 l 0 198 l 198 198 l 198 595 l 397 595 l 397 793 l 198 793 l 198 1190 l 0 1190 l 0 1389 l 397 1389 l 397 1190 l 595 1190 l 595 793 l 793 793 l 793 595 l 595 595 l 595 198 l 397 198 l 397 0 l 0 0 z "},"~":{"ha":1587,"x_min":0,"x_max":1389,"o":"m 0 397 l 0 793 l 198 793 l 198 992 l 793 992 l 793 595 l 992 595 l 992 992 l 1389 992 l 1389 595 l 1190 595 l 1190 397 l 595 397 l 595 793 l 397 793 l 397 397 l 0 397 z "},"¡":{"ha":595,"x_min":0,"x_max":397,"o":"m 0 0 l 0 992 l 397 992 l 397 0 l 0 0 m 0 1190 l 0 1389 l 397 1389 l 397 1190 l 0 1190 z "},"¢":{"ha":1587,"x_min":0,"x_max":1389,"o":"m 595 397 l 595 992 l 397 992 l 397 397 l 595 397 m 595 0 l 595 198 l 198 198 l 198 397 l 0 397 l 0 992 l 198 992 l 198 1190 l 595 1190 l 595 1389 l 793 1389 l 793 1190 l 1190 1190 l 1190 992 l 1389 992 l 1389 793 l 992 793 l 992 992 l 793 992 l 793 397 l 992 397 l 992 595 l 1389 595 l 1389 397 l 1190 397 l 1190 198 l 793 198 l 793 0 l 595 0 z "},"£":{"ha":1587,"x_min":0,"x_max":1389,"o":"m 198 0 l 198 595 l 0 595 l 0 793 l 198 793 l 198 1190 l 397 1190 l 397 1389 l 1190 1389 l 1190 1190 l 1389 1190 l 1389 992 l 992 992 l 992 1190 l 595 1190 l 595 793 l 1190 793 l 1190 595 l 595 595 l 595 198 l 1389 198 l 1389 0 l 198 0 z "},"¤":{"ha":1389,"x_min":198,"x_max":1190,"o":"m 198 198 l 198 397 l 397 397 l 397 198 l 198 198 m 595 198 l 595 397 l 793 397 l 793 198 l 595 198 m 992 198 l 992 397 l 1190 397 l 1190 198 l 992 198 m 397 397 l 397 595 l 198 595 l 198 793 l 397 793 l 397 992 l 595 992 l 595 397 l 397 397 m 793 397 l 793 992 l 992 992 l 992 793 l 1190 793 l 1190 595 l 992 595 l 992 397 l 793 397 m 198 992 l 198 1190 l 397 1190 l 397 992 l 198 992 m 595 992 l 595 1190 l 793 1190 l 793 992 l 595 992 m 992 992 l 992 1190 l 1190 1190 l 1190 992 l 992 992 z "},"¥":{"ha":1389,"x_min":0,"x_max":1190,"o":"m 397 0 l 397 198 l 198 198 l 198 397 l 397 397 l 397 595 l 198 595 l 198 793 l 397 793 l 397 992 l 198 992 l 198 1190 l 0 1190 l 0 1389 l 397 1389 l 397 1190 l 793 1190 l 793 1389 l 1190 1389 l 1190 1190 l 992 1190 l 992 992 l 793 992 l 793 793 l 992 793 l 992 595 l 793 595 l 793 397 l 992 397 l 992 198 l 793 198 l 793 0 l 397 0 z "},"¦":{"ha":595,"x_min":0,"x_max":397,"o":"m 0 0 l 0 595 l 397 595 l 397 0 l 0 0 m 0 793 l 0 1389 l 397 1389 l 397 793 l 0 793 z "},"§":{"ha":1587,"x_min":0,"x_max":1389,"o":"m 992 992 l 992 1190 l 397 1190 l 397 992 l 992 992 m 793 595 l 793 793 l 595 793 l 595 595 l 793 595 m 397 397 l 397 198 l 992 198 l 992 397 l 397 397 m 992 992 l 992 793 l 1190 793 l 1190 595 l 1389 595 l 1389 198 l 1190 198 l 1190 0 l 198 0 l 198 198 l 0 198 l 0 397 l 397 397 l 397 793 l 0 793 l 0 1190 l 198 1190 l 198 1389 l 1190 1389 l 1190 1190 l 1389 1190 l 1389 992 l 992 992 z "},"¨":{"ha":1190,"x_min":0,"x_max":992,"o":"m 0 1190 l 0 1389 l 397 1389 l 397 1190 l 0 1190 m 595 1190 l 595 1389 l 992 1389 l 992 1190 l 595 1190 z "},"©":{"ha":1587,"x_min":0,"x_max":1389,"o":"m 198 0 l 198 198 l 1190 198 l 1190 0 l 198 0 m 397 397 l 397 992 l 992 992 l 992 793 l 595 793 l 595 595 l 992 595 l 992 397 l 397 397 m 0 198 l 0 1190 l 198 1190 l 198 198 l 0 198 m 1190 198 l 1190 1190 l 1389 1190 l 1389 198 l 1190 198 m 198 1190 l 198 1389 l 1190 1389 l 1190 1190 l 198 1190 z "},"ª":{"ha":1587,"x_min":0,"x_max":1389,"o":"m 992 595 l 992 793 l 397 793 l 397 595 l 992 595 m 992 595 l 992 397 l 198 397 l 198 595 l 0 595 l 0 793 l 198 793 l 198 992 l 992 992 l 992 1190 l 198 1190 l 198 1389 l 1190 1389 l 1190 1190 l 1389 1190 l 1389 397 l 1190 397 l 1190 595 l 992 595 z "},"«":{"ha":1587,"x_min":0,"x_max":1389,"o":"m 397 198 l 397 397 l 198 397 l 198 595 l 0 595 l 0 793 l 198 793 l 198 992 l 397 992 l 397 1190 l 793 1190 l 793 992 l 595 992 l 595 793 l 397 793 l 397 595 l 595 595 l 595 397 l 793 397 l 793 198 l 397 198 m 992 198 l 992 397 l 793 397 l 793 595 l 595 595 l 595 793 l 793 793 l 793 992 l 992 992 l 992 1190 l 1389 1190 l 1389 992 l 1190 992 l 1190 793 l 992 793 l 992 595 l 1190 595 l 1190 397 l 1389 397 l 1389 198 l 992 198 z "},"¬":{"ha":1587,"x_min":0,"x_max":1389,"o":"m 992 198 l 992 595 l 0 595 l 0 793 l 1389 793 l 1389 198 l 992 198 z "},"­":{"ha":1587,"x_min":0,"x_max":1389,"o":"m 0 595 l 0 793 l 1389 793 l 1389 595 l 0 595 z "},"®":{"ha":1587,"x_min":0,"x_max":1389,"o":"m 198 0 l 198 198 l 1190 198 l 1190 0 l 198 0 m 793 595 l 793 793 l 992 793 l 992 595 l 793 595 m 397 397 l 397 992 l 793 992 l 793 793 l 595 793 l 595 397 l 397 397 m 0 198 l 0 1190 l 198 1190 l 198 198 l 0 198 m 1190 198 l 1190 1190 l 1389 1190 l 1389 198 l 1190 198 m 198 1190 l 198 1389 l 1190 1389 l 1190 1190 l 198 1190 z "},"¯":{"ha":1587,"x_min":0,"x_max":1389,"o":"m 0 1190 l 0 1389 l 1389 1389 l 1389 1190 l 0 1190 z "},"°":{"ha":1389,"x_min":0,"x_max":1190,"o":"m 793 595 l 793 1190 l 397 1190 l 397 595 l 793 595 m 198 397 l 198 595 l 0 595 l 0 1190 l 198 1190 l 198 1389 l 992 1389 l 992 1190 l 1190 1190 l 1190 595 l 992 595 l 992 397 l 198 397 z "},"±":{"ha":1389,"x_min":0,"x_max":1190,"o":"m 0 0 l 0 198 l 397 198 l 397 595 l 0 595 l 0 793 l 397 793 l 397 1190 l 793 1190 l 793 793 l 1190 793 l 1190 595 l 793 595 l 793 198 l 1190 198 l 1190 0 l 0 0 z "},"²":{"ha":1587,"x_min":0,"x_max":1389,"o":"m 0 397 l 0 595 l 198 595 l 198 793 l 595 793 l 595 595 l 1389 595 l 1389 397 l 0 397 m 595 793 l 595 992 l 793 992 l 793 1190 l 397 1190 l 397 992 l 0 992 l 0 1190 l 198 1190 l 198 1389 l 1190 1389 l 1190 1190 l 1389 1190 l 1389 992 l 1190 992 l 1190 793 l 595 793 z "},"³":{"ha":1587,"x_min":0,"x_max":1389,"o":"m 0 397 l 0 595 l 793 595 l 793 793 l 198 793 l 198 992 l 793 992 l 793 1190 l 0 1190 l 0 1389 l 1190 1389 l 1190 1190 l 1389 1190 l 1389 992 l 1190 992 l 1190 793 l 1389 793 l 1389 595 l 1190 595 l 1190 397 l 0 397 z "},"´":{"ha":793,"x_min":0,"x_max":595,"o":"m 0 992 l 0 1190 l 198 1190 l 198 1389 l 595 1389 l 595 1190 l 397 1190 l 397 992 l 0 992 z "},"µ":{"ha":1587,"x_min":0,"x_max":1389,"o":"m 0 0 l 0 1190 l 397 1190 l 397 397 l 992 397 l 992 198 l 397 198 l 397 0 l 0 0 m 1190 198 l 1190 397 l 992 397 l 992 1190 l 1389 1190 l 1389 198 l 1190 198 z "},"¶":{"ha":1587,"x_min":0,"x_max":1389,"o":"m 397 0 l 397 595 l 198 595 l 198 793 l 0 793 l 0 1190 l 198 1190 l 198 1389 l 1389 1389 l 1389 0 l 992 0 l 992 1190 l 793 1190 l 793 0 l 397 0 z "},"·":{"ha":595,"x_min":0,"x_max":397,"o":"m 0 397 l 0 793 l 397 793 l 397 397 l 0 397 z "},"¸":{"ha":992,"x_min":595,"x_max":793,"o":"m 595 0 l 595 198 l 793 198 l 793 0 l 595 0 z "},"¹":{"ha":992,"x_min":0,"x_max":793,"o":"m 0 397 l 0 595 l 198 595 l 198 992 l 0 992 l 0 1190 l 198 1190 l 198 1389 l 595 1389 l 595 595 l 793 595 l 793 397 l 0 397 z "},"º":{"ha":1587,"x_min":0,"x_max":1389,"o":"m 992 595 l 992 1190 l 397 1190 l 397 595 l 992 595 m 198 397 l 198 595 l 0 595 l 0 1190 l 198 1190 l 198 1389 l 1190 1389 l 1190 1190 l 1389 1190 l 1389 595 l 1190 595 l 1190 397 l 198 397 z "},"»":{"ha":1587,"x_min":0,"x_max":1389,"o":"m 0 198 l 0 397 l 198 397 l 198 595 l 397 595 l 397 793 l 198 793 l 198 992 l 0 992 l 0 1190 l 397 1190 l 397 992 l 595 992 l 595 793 l 793 793 l 793 595 l 595 595 l 595 397 l 397 397 l 397 198 l 0 198 m 595 198 l 595 397 l 793 397 l 793 595 l 992 595 l 992 793 l 793 793 l 793 992 l 595 992 l 595 1190 l 992 1190 l 992 992 l 1190 992 l 1190 793 l 1389 793 l 1389 595 l 1190 595 l 1190 397 l 992 397 l 992 198 l 595 198 z "},"¼":{"ha":1587,"x_min":0,"x_max":1389,"o":"m 0 0 l 0 198 l 198 198 l 198 397 l 397 397 l 397 595 l 595 595 l 595 198 l 397 198 l 397 0 l 0 0 m 1190 0 l 1190 198 l 793 198 l 793 595 l 992 595 l 992 397 l 1190 397 l 1190 595 l 1389 595 l 1389 0 l 1190 0 m 595 595 l 595 793 l 793 793 l 793 595 l 595 595 m 198 595 l 198 992 l 0 992 l 0 1190 l 397 1190 l 397 595 l 198 595 m 793 793 l 793 992 l 992 992 l 992 1190 l 1389 1190 l 1389 992 l 1190 992 l 1190 793 l 793 793 z "},"½":{"ha":1587,"x_min":0,"x_max":1389,"o":"m 0 0 l 0 198 l 198 198 l 198 397 l 397 397 l 397 595 l 595 595 l 595 198 l 397 198 l 397 0 l 0 0 m 793 0 l 793 198 l 992 198 l 992 397 l 793 397 l 793 595 l 1389 595 l 1389 397 l 1190 397 l 1190 198 l 1389 198 l 1389 0 l 793 0 m 595 595 l 595 793 l 793 793 l 793 595 l 595 595 m 198 595 l 198 992 l 0 992 l 0 1190 l 397 1190 l 397 595 l 198 595 m 793 793 l 793 992 l 992 992 l 992 1190 l 1389 1190 l 1389 992 l 1190 992 l 1190 793 l 793 793 z "},"¾":{"ha":1587,"x_min":0,"x_max":1389,"o":"m 0 0 l 0 198 l 198 198 l 198 397 l 595 397 l 595 198 l 397 198 l 397 0 l 0 0 m 1190 0 l 1190 198 l 793 198 l 793 595 l 992 595 l 992 397 l 1190 397 l 1190 595 l 1389 595 l 1389 0 l 1190 0 m 0 595 l 0 793 l 198 793 l 198 992 l 0 992 l 0 1190 l 595 1190 l 595 595 l 0 595 m 793 793 l 793 992 l 992 992 l 992 1190 l 1389 1190 l 1389 992 l 1190 992 l 1190 793 l 793 793 z "},"¿":{"ha":1587,"x_min":0,"x_max":1389,"o":"m 198 0 l 198 198 l 0 198 l 0 595 l 198 595 l 198 793 l 595 793 l 595 992 l 992 992 l 992 595 l 397 595 l 397 198 l 992 198 l 992 397 l 1389 397 l 1389 198 l 1190 198 l 1190 0 l 198 0 m 595 1190 l 595 1389 l 992 1389 l 992 1190 l 595 1190 z "},"À":{"ha":1587,"x_min":0,"x_max":1389,"o":"m 992 397 l 992 595 l 793 595 l 793 793 l 595 793 l 595 595 l 397 595 l 397 397 l 992 397 m 0 0 l 0 595 l 198 595 l 198 793 l 397 793 l 397 1190 l 198 1190 l 198 1389 l 595 1389 l 595 1190 l 793 1190 l 793 992 l 992 992 l 992 793 l 1190 793 l 1190 595 l 1389 595 l 1389 0 l 992 0 l 992 198 l 397 198 l 397 0 l 0 0 z "},"Á":{"ha":1587,"x_min":0,"x_max":1389,"o":"m 992 397 l 992 595 l 793 595 l 793 793 l 595 793 l 595 595 l 397 595 l 397 397 l 992 397 m 0 0 l 0 595 l 198 595 l 198 793 l 397 793 l 397 992 l 595 992 l 595 1190 l 793 1190 l 793 1389 l 1190 1389 l 1190 1190 l 992 1190 l 992 793 l 1190 793 l 1190 595 l 1389 595 l 1389 0 l 992 0 l 992 198 l 397 198 l 397 0 l 0 0 z "},"Â":{"ha":1587,"x_min":0,"x_max":1389,"o":"m 992 397 l 992 595 l 793 595 l 793 793 l 595 793 l 595 595 l 397 595 l 397 397 l 992 397 m 0 0 l 0 595 l 198 595 l 198 793 l 397 793 l 397 1190 l 595 1190 l 595 992 l 793 992 l 793 1190 l 992 1190 l 992 793 l 1190 793 l 1190 595 l 1389 595 l 1389 0 l 992 0 l 992 198 l 397 198 l 397 0 l 0 0 m 595 1190 l 595 1389 l 793 1389 l 793 1190 l 595 1190 z "},"Ã":{"ha":1587,"x_min":0,"x_max":1389,"o":"m 397 992 l 595 992 l 595 1190 l 397 1190 l 397 992 m 992 397 l 992 595 l 793 595 l 793 793 l 595 793 l 595 595 l 397 595 l 397 397 l 992 397 m 397 992 l 0 992 l 0 1190 l 198 1190 l 198 1389 l 793 1389 l 793 1190 l 992 1190 l 992 1389 l 1389 1389 l 1389 1190 l 1190 1190 l 1190 992 l 992 992 l 992 793 l 1190 793 l 1190 595 l 1389 595 l 1389 0 l 992 0 l 992 198 l 397 198 l 397 0 l 0 0 l 0 595 l 198 595 l 198 793 l 397 793 l 397 992 z "},"Ä":{"ha":1587,"x_min":0,"x_max":1389,"o":"m 992 397 l 992 595 l 793 595 l 793 793 l 595 793 l 595 595 l 397 595 l 397 397 l 992 397 m 0 0 l 0 595 l 198 595 l 198 793 l 397 793 l 397 992 l 992 992 l 992 793 l 1190 793 l 1190 595 l 1389 595 l 1389 0 l 992 0 l 992 198 l 397 198 l 397 0 l 0 0 m 198 1190 l 198 1389 l 595 1389 l 595 1190 l 198 1190 m 793 1190 l 793 1389 l 1190 1389 l 1190 1190 l 793 1190 z "},"Å":{"ha":1587,"x_min":0,"x_max":1389,"o":"m 992 397 l 992 595 l 793 595 l 793 793 l 595 793 l 595 595 l 397 595 l 397 397 l 992 397 m 793 992 l 793 1190 l 595 1190 l 595 992 l 793 992 m 0 0 l 0 595 l 198 595 l 198 793 l 397 793 l 397 992 l 198 992 l 198 1190 l 397 1190 l 397 1389 l 992 1389 l 992 1190 l 1190 1190 l 1190 992 l 992 992 l 992 793 l 1190 793 l 1190 595 l 1389 595 l 1389 0 l 992 0 l 992 198 l 397 198 l 397 0 l 0 0 z "},"Æ":{"ha":1587,"x_min":0,"x_max":1389,"o":"m 595 595 l 595 992 l 397 992 l 397 595 l 595 595 m 0 0 l 0 992 l 198 992 l 198 1190 l 397 1190 l 397 1389 l 1389 1389 l 1389 1190 l 992 1190 l 992 793 l 1389 793 l 1389 595 l 992 595 l 992 198 l 1389 198 l 1389 0 l 595 0 l 595 397 l 397 397 l 397 0 l 0 0 z "},"Ç":{"ha":1587,"x_min":0,"x_max":1389,"o":"m 595 0 l 595 198 l 198 198 l 198 397 l 0 397 l 0 992 l 198 992 l 198 1190 l 1190 1190 l 1190 992 l 1389 992 l 1389 793 l 992 793 l 992 992 l 397 992 l 397 397 l 992 397 l 992 595 l 1389 595 l 1389 397 l 1190 397 l 1190 198 l 793 198 l 793 0 l 595 0 z "},"È":{"ha":1587,"x_min":0,"x_max":1389,"o":"m 0 0 l 0 992 l 397 992 l 397 1190 l 198 1190 l 198 1389 l 595 1389 l 595 1190 l 793 1190 l 793 992 l 1389 992 l 1389 793 l 397 793 l 397 595 l 1190 595 l 1190 397 l 397 397 l 397 198 l 1389 198 l 1389 0 l 0 0 z "},"É":{"ha":1587,"x_min":0,"x_max":1389,"o":"m 0 0 l 0 992 l 595 992 l 595 1190 l 793 1190 l 793 1389 l 1190 1389 l 1190 1190 l 992 1190 l 992 992 l 1389 992 l 1389 793 l 397 793 l 397 595 l 1190 595 l 1190 397 l 397 397 l 397 198 l 1389 198 l 1389 0 l 0 0 z "},"Ê":{"ha":1587,"x_min":0,"x_max":1389,"o":"m 0 0 l 0 992 l 397 992 l 397 1190 l 595 1190 l 595 992 l 793 992 l 793 1190 l 992 1190 l 992 992 l 1389 992 l 1389 793 l 397 793 l 397 595 l 1190 595 l 1190 397 l 397 397 l 397 198 l 1389 198 l 1389 0 l 0 0 m 595 1190 l 595 1389 l 793 1389 l 793 1190 l 595 1190 z "},"Ë":{"ha":1587,"x_min":0,"x_max":1389,"o":"m 0 0 l 0 992 l 1389 992 l 1389 793 l 397 793 l 397 595 l 1190 595 l 1190 397 l 397 397 l 397 198 l 1389 198 l 1389 0 l 0 0 m 198 1190 l 198 1389 l 595 1389 l 595 1190 l 198 1190 m 793 1190 l 793 1389 l 1190 1389 l 1190 1190 l 793 1190 z "},"Ì":{"ha":992,"x_min":0,"x_max":793,"o":"m 0 0 l 0 198 l 198 198 l 198 793 l 0 793 l 0 992 l 198 992 l 198 1190 l 0 1190 l 0 1389 l 397 1389 l 397 1190 l 595 1190 l 595 992 l 793 992 l 793 793 l 595 793 l 595 198 l 793 198 l 793 0 l 0 0 z "},"Í":{"ha":992,"x_min":0,"x_max":793,"o":"m 0 0 l 0 198 l 198 198 l 198 793 l 0 793 l 0 992 l 198 992 l 198 1190 l 397 1190 l 397 1389 l 793 1389 l 793 1190 l 595 1190 l 595 992 l 793 992 l 793 793 l 595 793 l 595 198 l 793 198 l 793 0 l 0 0 z "},"Î":{"ha":992,"x_min":0,"x_max":793,"o":"m 0 0 l 0 198 l 198 198 l 198 793 l 0 793 l 0 992 l 198 992 l 198 1190 l 397 1190 l 397 992 l 595 992 l 595 1190 l 793 1190 l 793 793 l 595 793 l 595 198 l 793 198 l 793 0 l 0 0 m 397 1190 l 397 1389 l 595 1389 l 595 1190 l 397 1190 z "},"Ï":{"ha":1389,"x_min":0,"x_max":1190,"o":"m 198 0 l 198 198 l 397 198 l 397 793 l 198 793 l 198 992 l 992 992 l 992 793 l 793 793 l 793 198 l 992 198 l 992 0 l 198 0 m 0 1190 l 0 1389 l 397 1389 l 397 1190 l 0 1190 m 793 1190 l 793 1389 l 1190 1389 l 1190 1190 l 793 1190 z "},"Ð":{"ha":1587,"x_min":0,"x_max":1389,"o":"m 992 198 l 992 1190 l 595 1190 l 595 793 l 793 793 l 793 595 l 595 595 l 595 198 l 992 198 m 198 0 l 198 595 l 0 595 l 0 793 l 198 793 l 198 1389 l 1190 1389 l 1190 1190 l 1389 1190 l 1389 198 l 1190 198 l 1190 0 l 198 0 z "},"Ñ":{"ha":1587,"x_min":0,"x_max":1389,"o":"m 595 397 l 595 595 l 793 595 l 793 397 l 595 397 m 0 0 l 0 1190 l 198 1190 l 198 1389 l 793 1389 l 793 1190 l 992 1190 l 992 1389 l 1389 1389 l 1389 1190 l 1190 1190 l 1190 992 l 1389 992 l 1389 0 l 992 0 l 992 198 l 793 198 l 793 397 l 992 397 l 992 992 l 595 992 l 595 1190 l 397 1190 l 397 793 l 595 793 l 595 595 l 397 595 l 397 0 l 0 0 z "},"Ò":{"ha":1587,"x_min":0,"x_max":1389,"o":"m 992 198 l 992 793 l 397 793 l 397 198 l 992 198 m 198 0 l 198 198 l 0 198 l 0 793 l 198 793 l 198 992 l 397 992 l 397 1190 l 198 1190 l 198 1389 l 595 1389 l 595 1190 l 793 1190 l 793 992 l 1190 992 l 1190 793 l 1389 793 l 1389 198 l 1190 198 l 1190 0 l 198 0 z "},"Ó":{"ha":1587,"x_min":0,"x_max":1389,"o":"m 992 198 l 992 793 l 397 793 l 397 198 l 992 198 m 198 0 l 198 198 l 0 198 l 0 793 l 198 793 l 198 992 l 595 992 l 595 1190 l 793 1190 l 793 1389 l 1190 1389 l 1190 1190 l 992 1190 l 992 992 l 1190 992 l 1190 793 l 1389 793 l 1389 198 l 1190 198 l 1190 0 l 198 0 z "},"Ô":{"ha":1587,"x_min":0,"x_max":1389,"o":"m 992 198 l 992 793 l 397 793 l 397 198 l 992 198 m 198 0 l 198 198 l 0 198 l 0 793 l 198 793 l 198 992 l 397 992 l 397 1190 l 595 1190 l 595 992 l 793 992 l 793 1190 l 992 1190 l 992 992 l 1190 992 l 1190 793 l 1389 793 l 1389 198 l 1190 198 l 1190 0 l 198 0 m 595 1190 l 595 1389 l 793 1389 l 793 1190 l 595 1190 z "},"Õ":{"ha":1587,"x_min":0,"x_max":1389,"o":"m 992 198 l 992 793 l 397 793 l 397 198 l 992 198 m 595 992 l 595 1190 l 397 1190 l 397 992 l 595 992 m 198 0 l 198 198 l 0 198 l 0 793 l 198 793 l 198 992 l 0 992 l 0 1190 l 198 1190 l 198 1389 l 793 1389 l 793 1190 l 992 1190 l 992 1389 l 1389 1389 l 1389 1190 l 1190 1190 l 1190 793 l 1389 793 l 1389 198 l 1190 198 l 1190 0 l 198 0 z "},"Ö":{"ha":1587,"x_min":0,"x_max":1389,"o":"m 992 198 l 992 793 l 397 793 l 397 198 l 992 198 m 198 0 l 198 198 l 0 198 l 0 793 l 198 793 l 198 992 l 1190 992 l 1190 793 l 1389 793 l 1389 198 l 1190 198 l 1190 0 l 198 0 m 198 1190 l 198 1389 l 595 1389 l 595 1190 l 198 1190 m 793 1190 l 793 1389 l 1190 1389 l 1190 1190 l 793 1190 z "},"×":{"ha":1587,"x_min":0,"x_max":1389,"o":"m 0 0 l 0 198 l 198 198 l 198 397 l 397 397 l 397 793 l 198 793 l 198 992 l 0 992 l 0 1190 l 397 1190 l 397 992 l 595 992 l 595 793 l 793 793 l 793 992 l 992 992 l 992 1190 l 1389 1190 l 1389 992 l 1190 992 l 1190 793 l 992 793 l 992 397 l 1190 397 l 1190 198 l 1389 198 l 1389 0 l 992 0 l 992 198 l 793 198 l 793 397 l 595 397 l 595 198 l 397 198 l 397 0 l 0 0 z "},"Ø":{"ha":1587,"x_min":0,"x_max":1389,"o":"m 0 0 l 0 198 l 198 198 l 198 0 l 0 0 m 595 595 l 595 793 l 793 793 l 793 595 l 595 595 m 397 0 l 397 198 l 992 198 l 992 793 l 793 793 l 793 992 l 992 992 l 992 1190 l 1190 1190 l 1190 992 l 1389 992 l 1389 198 l 1190 198 l 1190 0 l 397 0 m 198 198 l 198 397 l 0 397 l 0 1190 l 198 1190 l 198 1389 l 992 1389 l 992 1190 l 397 1190 l 397 595 l 595 595 l 595 397 l 397 397 l 397 198 l 198 198 m 1190 1190 l 1190 1389 l 1389 1389 l 1389 1190 l 1190 1190 z "},"Ù":{"ha":1587,"x_min":0,"x_max":1389,"o":"m 198 0 l 198 198 l 0 198 l 0 992 l 397 992 l 397 198 l 992 198 l 992 992 l 1389 992 l 1389 198 l 1190 198 l 1190 0 l 198 0 m 397 992 l 397 1190 l 198 1190 l 198 1389 l 595 1389 l 595 1190 l 793 1190 l 793 992 l 397 992 z "},"Ú":{"ha":1587,"x_min":0,"x_max":1389,"o":"m 198 0 l 198 198 l 0 198 l 0 992 l 397 992 l 397 198 l 992 198 l 992 992 l 1389 992 l 1389 198 l 1190 198 l 1190 0 l 198 0 m 595 992 l 595 1190 l 793 1190 l 793 1389 l 1190 1389 l 1190 1190 l 992 1190 l 992 992 l 595 992 z "},"Û":{"ha":1587,"x_min":0,"x_max":1389,"o":"m 198 0 l 198 198 l 0 198 l 0 992 l 397 992 l 397 198 l 992 198 l 992 992 l 1389 992 l 1389 198 l 1190 198 l 1190 0 l 198 0 m 397 992 l 397 1190 l 595 1190 l 595 992 l 397 992 m 793 992 l 793 1190 l 992 1190 l 992 992 l 793 992 m 595 1190 l 595 1389 l 793 1389 l 793 1190 l 595 1190 z "},"Ü":{"ha":1587,"x_min":0,"x_max":1389,"o":"m 198 0 l 198 198 l 0 198 l 0 992 l 397 992 l 397 198 l 992 198 l 992 992 l 1389 992 l 1389 198 l 1190 198 l 1190 0 l 198 0 m 198 1190 l 198 1389 l 595 1389 l 595 1190 l 198 1190 m 793 1190 l 793 1389 l 1190 1389 l 1190 1190 l 793 1190 z "},"Ý":{"ha":1389,"x_min":0,"x_max":1190,"o":"m 397 0 l 397 397 l 198 397 l 198 595 l 0 595 l 0 992 l 397 992 l 397 595 l 793 595 l 793 992 l 1190 992 l 1190 595 l 992 595 l 992 397 l 793 397 l 793 0 l 397 0 m 397 992 l 397 1190 l 595 1190 l 595 1389 l 992 1389 l 992 1190 l 793 1190 l 793 992 l 397 992 z "},"Þ":{"ha":1587,"x_min":0,"x_max":1389,"o":"m 992 397 l 992 992 l 397 992 l 397 397 l 992 397 m 0 0 l 0 1389 l 397 1389 l 397 1190 l 1190 1190 l 1190 992 l 1389 992 l 1389 397 l 1190 397 l 1190 198 l 397 198 l 397 0 l 0 0 z "},"ß":{"ha":1587,"x_min":0,"x_max":1389,"o":"m 595 0 l 595 198 l 992 198 l 992 595 l 1389 595 l 1389 198 l 1190 198 l 1190 0 l 595 0 m 0 0 l 0 1190 l 198 1190 l 198 1389 l 992 1389 l 992 1190 l 1190 1190 l 1190 793 l 992 793 l 992 595 l 595 595 l 595 793 l 793 793 l 793 1190 l 397 1190 l 397 0 l 0 0 z "},"à":{"ha":1587,"x_min":0,"x_max":1389,"o":"m 992 198 l 992 397 l 397 397 l 397 198 l 992 198 m 992 198 l 992 0 l 198 0 l 198 198 l 0 198 l 0 397 l 198 397 l 198 595 l 992 595 l 992 793 l 198 793 l 198 992 l 595 992 l 595 1190 l 397 1190 l 397 1389 l 793 1389 l 793 1190 l 992 1190 l 992 992 l 1190 992 l 1190 793 l 1389 793 l 1389 0 l 1190 0 l 1190 198 l 992 198 z "},"á":{"ha":1587,"x_min":0,"x_max":1389,"o":"m 992 198 l 992 397 l 397 397 l 397 198 l 992 198 m 992 198 l 992 0 l 198 0 l 198 198 l 0 198 l 0 397 l 198 397 l 198 595 l 992 595 l 992 793 l 198 793 l 198 992 l 397 992 l 397 1190 l 595 1190 l 595 1389 l 992 1389 l 992 1190 l 793 1190 l 793 992 l 1190 992 l 1190 793 l 1389 793 l 1389 0 l 1190 0 l 1190 198 l 992 198 z "},"â":{"ha":1587,"x_min":0,"x_max":1389,"o":"m 992 198 l 992 397 l 397 397 l 397 198 l 992 198 m 992 198 l 992 0 l 198 0 l 198 198 l 0 198 l 0 397 l 198 397 l 198 595 l 992 595 l 992 793 l 198 793 l 198 992 l 397 992 l 397 1190 l 595 1190 l 595 992 l 793 992 l 793 1190 l 992 1190 l 992 992 l 1190 992 l 1190 793 l 1389 793 l 1389 0 l 1190 0 l 1190 198 l 992 198 m 595 1190 l 595 1389 l 793 1389 l 793 1190 l 595 1190 z "},"ã":{"ha":1587,"x_min":0,"x_max":1389,"o":"m 992 198 l 992 397 l 397 397 l 397 198 l 992 198 m 595 992 l 595 1190 l 397 1190 l 397 992 l 595 992 m 992 198 l 992 0 l 198 0 l 198 198 l 0 198 l 0 397 l 198 397 l 198 595 l 992 595 l 992 793 l 198 793 l 198 992 l 0 992 l 0 1190 l 198 1190 l 198 1389 l 793 1389 l 793 1190 l 992 1190 l 992 1389 l 1389 1389 l 1389 1190 l 1190 1190 l 1190 793 l 1389 793 l 1389 0 l 1190 0 l 1190 198 l 992 198 z "},"ä":{"ha":1587,"x_min":0,"x_max":1389,"o":"m 992 198 l 992 397 l 397 397 l 397 198 l 992 198 m 992 198 l 992 0 l 198 0 l 198 198 l 0 198 l 0 397 l 198 397 l 198 595 l 992 595 l 992 793 l 198 793 l 198 992 l 1190 992 l 1190 793 l 1389 793 l 1389 0 l 1190 0 l 1190 198 l 992 198 m 793 1190 l 793 1389 l 1190 1389 l 1190 1190 l 793 1190 m 198 1190 l 198 1389 l 595 1389 l 595 1190 l 198 1190 z "},"å":{"ha":1587,"x_min":0,"x_max":1389,"o":"m 992 198 l 992 397 l 397 397 l 397 198 l 992 198 m 793 992 l 793 1190 l 595 1190 l 595 992 l 793 992 m 992 198 l 992 0 l 198 0 l 198 198 l 0 198 l 0 397 l 198 397 l 198 595 l 992 595 l 992 793 l 198 793 l 198 1190 l 397 1190 l 397 1389 l 992 1389 l 992 1190 l 1190 1190 l 1190 793 l 1389 793 l 1389 0 l 1190 0 l 1190 198 l 992 198 z "},"æ":{"ha":1587,"x_min":0,"x_max":1389,"o":"m 595 198 l 595 595 l 397 595 l 397 198 l 595 198 m 793 992 l 793 595 l 992 595 l 992 992 l 793 992 m 595 198 l 595 0 l 198 0 l 198 198 l 0 198 l 0 595 l 198 595 l 198 793 l 397 793 l 397 992 l 198 992 l 198 1190 l 595 1190 l 595 992 l 793 992 l 793 1190 l 1190 1190 l 1190 992 l 1389 992 l 1389 595 l 1190 595 l 1190 397 l 992 397 l 992 198 l 1190 198 l 1190 0 l 793 0 l 793 198 l 595 198 z "},"ç":{"ha":1587,"x_min":0,"x_max":1389,"o":"m 595 0 l 595 198 l 198 198 l 198 397 l 0 397 l 0 992 l 198 992 l 198 1190 l 1190 1190 l 1190 992 l 1389 992 l 1389 793 l 992 793 l 992 992 l 397 992 l 397 397 l 992 397 l 992 595 l 1389 595 l 1389 397 l 1190 397 l 1190 198 l 793 198 l 793 0 l 595 0 z "},"è":{"ha":1587,"x_min":0,"x_max":1389,"o":"m 992 595 l 992 793 l 397 793 l 397 595 l 992 595 m 198 0 l 198 198 l 0 198 l 0 793 l 198 793 l 198 992 l 397 992 l 397 1190 l 198 1190 l 198 1389 l 595 1389 l 595 1190 l 793 1190 l 793 992 l 1190 992 l 1190 793 l 1389 793 l 1389 595 l 1190 595 l 1190 397 l 397 397 l 397 198 l 1190 198 l 1190 0 l 198 0 z "},"é":{"ha":1587,"x_min":0,"x_max":1389,"o":"m 992 595 l 992 793 l 397 793 l 397 595 l 992 595 m 198 0 l 198 198 l 0 198 l 0 793 l 198 793 l 198 992 l 595 992 l 595 1190 l 793 1190 l 793 1389 l 1190 1389 l 1190 1190 l 992 1190 l 992 992 l 1190 992 l 1190 793 l 1389 793 l 1389 595 l 1190 595 l 1190 397 l 397 397 l 397 198 l 1190 198 l 1190 0 l 198 0 z "},"ê":{"ha":1587,"x_min":0,"x_max":1389,"o":"m 992 595 l 992 793 l 397 793 l 397 595 l 992 595 m 198 0 l 198 198 l 0 198 l 0 793 l 198 793 l 198 992 l 397 992 l 397 1190 l 595 1190 l 595 992 l 793 992 l 793 1190 l 992 1190 l 992 992 l 1190 992 l 1190 793 l 1389 793 l 1389 595 l 1190 595 l 1190 397 l 397 397 l 397 198 l 1190 198 l 1190 0 l 198 0 m 595 1190 l 595 1389 l 793 1389 l 793 1190 l 595 1190 z "},"ë":{"ha":1587,"x_min":0,"x_max":1389,"o":"m 992 595 l 992 793 l 397 793 l 397 595 l 992 595 m 198 0 l 198 198 l 0 198 l 0 793 l 198 793 l 198 992 l 1190 992 l 1190 793 l 1389 793 l 1389 595 l 1190 595 l 1190 397 l 397 397 l 397 198 l 1190 198 l 1190 0 l 198 0 m 198 1190 l 198 1389 l 595 1389 l 595 1190 l 198 1190 m 793 1190 l 793 1389 l 1190 1389 l 1190 1190 l 793 1190 z "},"ì":{"ha":992,"x_min":0,"x_max":793,"o":"m 397 0 l 397 198 l 198 198 l 198 793 l 595 793 l 595 198 l 793 198 l 793 0 l 397 0 m 198 992 l 198 1190 l 0 1190 l 0 1389 l 397 1389 l 397 1190 l 595 1190 l 595 992 l 198 992 z "},"í":{"ha":793,"x_min":0,"x_max":595,"o":"m 198 0 l 198 198 l 0 198 l 0 793 l 397 793 l 397 198 l 595 198 l 595 0 l 198 0 m 0 992 l 0 1190 l 198 1190 l 198 1389 l 595 1389 l 595 1190 l 397 1190 l 397 992 l 0 992 z "},"î":{"ha":793,"x_min":0,"x_max":595,"o":"m 198 0 l 198 198 l 0 198 l 0 793 l 397 793 l 397 198 l 595 198 l 595 0 l 198 0 m 0 992 l 0 1190 l 198 1190 l 198 992 l 0 992 m 397 992 l 397 1190 l 595 1190 l 595 992 l 397 992 m 198 1190 l 198 1389 l 397 1389 l 397 1190 l 198 1190 z "},"ï":{"ha":1389,"x_min":0,"x_max":1190,"o":"m 595 0 l 595 198 l 397 198 l 397 793 l 793 793 l 793 198 l 992 198 l 992 0 l 595 0 m 0 1190 l 0 1389 l 397 1389 l 397 1190 l 0 1190 m 793 1190 l 793 1389 l 1190 1389 l 1190 1190 l 793 1190 z "},"ð":{"ha":1587,"x_min":0,"x_max":1389,"o":"m 595 992 l 595 793 l 793 793 l 793 992 l 595 992 m 992 198 l 992 595 l 397 595 l 397 198 l 992 198 m 595 992 l 595 1190 l 397 1190 l 397 1389 l 793 1389 l 793 1190 l 992 1190 l 992 992 l 1190 992 l 1190 793 l 1389 793 l 1389 198 l 1190 198 l 1190 0 l 198 0 l 198 198 l 0 198 l 0 595 l 198 595 l 198 793 l 397 793 l 397 992 l 595 992 m 992 1190 l 992 1389 l 1190 1389 l 1190 1190 l 992 1190 z "},"ñ":{"ha":1587,"x_min":0,"x_max":1389,"o":"m 595 992 l 595 1190 l 397 1190 l 397 992 l 595 992 m 0 0 l 0 1190 l 198 1190 l 198 1389 l 793 1389 l 793 1190 l 992 1190 l 992 1389 l 1389 1389 l 1389 1190 l 1190 1190 l 1190 793 l 1389 793 l 1389 0 l 992 0 l 992 793 l 397 793 l 397 0 l 0 0 z "},"ò":{"ha":1587,"x_min":0,"x_max":1389,"o":"m 992 198 l 992 793 l 397 793 l 397 198 l 992 198 m 198 0 l 198 198 l 0 198 l 0 793 l 198 793 l 198 992 l 397 992 l 397 1190 l 198 1190 l 198 1389 l 595 1389 l 595 1190 l 793 1190 l 793 992 l 1190 992 l 1190 793 l 1389 793 l 1389 198 l 1190 198 l 1190 0 l 198 0 z "},"ó":{"ha":1587,"x_min":0,"x_max":1389,"o":"m 992 198 l 992 793 l 397 793 l 397 198 l 992 198 m 198 0 l 198 198 l 0 198 l 0 793 l 198 793 l 198 992 l 595 992 l 595 1190 l 793 1190 l 793 1389 l 1190 1389 l 1190 1190 l 992 1190 l 992 992 l 1190 992 l 1190 793 l 1389 793 l 1389 198 l 1190 198 l 1190 0 l 198 0 z "},"ô":{"ha":1587,"x_min":0,"x_max":1389,"o":"m 992 198 l 992 793 l 397 793 l 397 198 l 992 198 m 198 0 l 198 198 l 0 198 l 0 793 l 198 793 l 198 992 l 397 992 l 397 1190 l 595 1190 l 595 992 l 793 992 l 793 1190 l 992 1190 l 992 992 l 1190 992 l 1190 793 l 1389 793 l 1389 198 l 1190 198 l 1190 0 l 198 0 m 595 1190 l 595 1389 l 793 1389 l 793 1190 l 595 1190 z "},"õ":{"ha":1587,"x_min":0,"x_max":1389,"o":"m 992 198 l 992 793 l 397 793 l 397 198 l 992 198 m 595 992 l 595 1190 l 397 1190 l 397 992 l 595 992 m 198 0 l 198 198 l 0 198 l 0 793 l 198 793 l 198 992 l 0 992 l 0 1190 l 198 1190 l 198 1389 l 793 1389 l 793 1190 l 992 1190 l 992 1389 l 1389 1389 l 1389 1190 l 1190 1190 l 1190 793 l 1389 793 l 1389 198 l 1190 198 l 1190 0 l 198 0 z "},"ö":{"ha":1587,"x_min":0,"x_max":1389,"o":"m 992 198 l 992 793 l 397 793 l 397 198 l 992 198 m 198 0 l 198 198 l 0 198 l 0 793 l 198 793 l 198 992 l 1190 992 l 1190 793 l 1389 793 l 1389 198 l 1190 198 l 1190 0 l 198 0 m 198 1190 l 198 1389 l 595 1389 l 595 1190 l 198 1190 m 793 1190 l 793 1389 l 1190 1389 l 1190 1190 l 793 1190 z "},"÷":{"ha":1389,"x_min":0,"x_max":1190,"o":"m 397 198 l 397 397 l 793 397 l 793 198 l 397 198 m 0 595 l 0 793 l 1190 793 l 1190 595 l 0 595 m 397 992 l 397 1190 l 793 1190 l 793 992 l 397 992 z "},"ø":{"ha":1587,"x_min":0,"x_max":1389,"o":"m 0 0 l 0 198 l 198 198 l 198 0 l 0 0 m 595 397 l 595 793 l 793 793 l 793 397 l 595 397 m 992 198 l 992 793 l 793 793 l 793 992 l 397 992 l 397 397 l 595 397 l 595 198 l 992 198 m 397 0 l 397 198 l 198 198 l 198 397 l 0 397 l 0 992 l 198 992 l 198 1190 l 992 1190 l 992 992 l 1190 992 l 1190 793 l 1389 793 l 1389 198 l 1190 198 l 1190 0 l 397 0 m 1190 992 l 1190 1190 l 1389 1190 l 1389 992 l 1190 992 z "},"ù":{"ha":1587,"x_min":0,"x_max":1389,"o":"m 198 0 l 198 198 l 0 198 l 0 992 l 397 992 l 397 198 l 992 198 l 992 992 l 1389 992 l 1389 198 l 1190 198 l 1190 0 l 198 0 m 397 992 l 397 1190 l 198 1190 l 198 1389 l 595 1389 l 595 1190 l 793 1190 l 793 992 l 397 992 z "},"ú":{"ha":1587,"x_min":0,"x_max":1389,"o":"m 198 0 l 198 198 l 0 198 l 0 992 l 397 992 l 397 198 l 992 198 l 992 992 l 1389 992 l 1389 198 l 1190 198 l 1190 0 l 198 0 m 595 992 l 595 1190 l 793 1190 l 793 1389 l 1190 1389 l 1190 1190 l 992 1190 l 992 992 l 595 992 z "},"û":{"ha":1587,"x_min":0,"x_max":1389,"o":"m 198 0 l 198 198 l 0 198 l 0 992 l 397 992 l 397 198 l 992 198 l 992 992 l 1389 992 l 1389 198 l 1190 198 l 1190 0 l 198 0 m 397 992 l 397 1190 l 595 1190 l 595 992 l 397 992 m 793 992 l 793 1190 l 992 1190 l 992 992 l 793 992 m 595 1190 l 595 1389 l 793 1389 l 793 1190 l 595 1190 z "},"ü":{"ha":1587,"x_min":0,"x_max":1389,"o":"m 198 0 l 198 198 l 0 198 l 0 992 l 397 992 l 397 198 l 992 198 l 992 992 l 1389 992 l 1389 198 l 1190 198 l 1190 0 l 198 0 m 198 1190 l 198 1389 l 595 1389 l 595 1190 l 198 1190 m 793 1190 l 793 1389 l 1190 1389 l 1190 1190 l 793 1190 z "},"ý":{"ha":1587,"x_min":0,"x_max":1389,"o":"m 198 0 l 198 198 l 992 198 l 992 397 l 198 397 l 198 595 l 0 595 l 0 992 l 397 992 l 397 595 l 992 595 l 992 992 l 1389 992 l 1389 198 l 1190 198 l 1190 0 l 198 0 m 595 992 l 595 1190 l 793 1190 l 793 1389 l 1190 1389 l 1190 1190 l 992 1190 l 992 992 l 595 992 z "},"þ":{"ha":1587,"x_min":0,"x_max":1389,"o":"m 992 397 l 992 793 l 397 793 l 397 397 l 992 397 m 0 0 l 0 1190 l 397 1190 l 397 992 l 1190 992 l 1190 793 l 1389 793 l 1389 397 l 1190 397 l 1190 198 l 397 198 l 397 0 l 0 0 z "},"ÿ":{"ha":1587,"x_min":0,"x_max":1389,"o":"m 198 0 l 198 198 l 992 198 l 992 397 l 198 397 l 198 595 l 0 595 l 0 992 l 397 992 l 397 595 l 992 595 l 992 992 l 1389 992 l 1389 198 l 1190 198 l 1190 0 l 198 0 m 198 1190 l 198 1389 l 595 1389 l 595 1190 l 198 1190 m 793 1190 l 793 1389 l 1190 1389 l 1190 1190 l 793 1190 z "},"Œ":{"ha":1587,"x_min":0,"x_max":1389,"o":"m 595 198 l 595 1190 l 397 1190 l 397 198 l 595 198 m 198 0 l 198 198 l 0 198 l 0 1190 l 198 1190 l 198 1389 l 1389 1389 l 1389 1190 l 992 1190 l 992 793 l 1389 793 l 1389 595 l 992 595 l 992 198 l 1389 198 l 1389 0 l 198 0 z "},"œ":{"ha":1587,"x_min":0,"x_max":1389,"o":"m 992 0 l 992 198 l 1389 198 l 1389 0 l 992 0 m 1190 595 l 1190 992 l 1389 992 l 1389 595 l 1190 595 m 198 0 l 198 198 l 0 198 l 0 992 l 198 992 l 198 1190 l 595 1190 l 595 992 l 397 992 l 397 198 l 595 198 l 595 0 l 198 0 m 595 198 l 595 992 l 793 992 l 793 1190 l 1190 1190 l 1190 992 l 992 992 l 992 595 l 1190 595 l 1190 397 l 992 397 l 992 198 l 595 198 z "},"Ÿ":{"ha":1389,"x_min":0,"x_max":1190,"o":"m 397 0 l 397 397 l 198 397 l 198 595 l 0 595 l 0 992 l 397 992 l 397 595 l 793 595 l 793 992 l 1190 992 l 1190 595 l 992 595 l 992 397 l 793 397 l 793 0 l 397 0 m 0 1190 l 0 1389 l 397 1389 l 397 1190 l 0 1190 m 793 1190 l 793 1389 l 1190 1389 l 1190 1190 l 793 1190 z "},"ẞ":{"ha":1587,"x_min":0,"x_max":1389,"o":"m 0 0 l 0 1190 l 198 1190 l 198 1389 l 992 1389 l 992 1190 l 1190 1190 l 1190 992 l 1389 992 l 1389 793 l 1190 793 l 1190 595 l 1389 595 l 1389 198 l 1190 198 l 1190 0 l 595 0 l 595 198 l 992 198 l 992 595 l 793 595 l 793 793 l 992 793 l 992 992 l 793 992 l 793 1190 l 397 1190 l 397 0 l 0 0 z "},"—":{"ha":1587,"x_min":0,"x_max":1389,"o":"m 0 595 l 0 793 l 1389 793 l 1389 595 l 0 595 z "},"‘":{"ha":595,"x_min":0,"x_max":397,"o":"m 0 595 l 0 1190 l 198 1190 l 198 992 l 397 992 l 397 595 l 0 595 m 198 1190 l 198 1389 l 397 1389 l 397 1190 l 198 1190 z "},"’":{"ha":595,"x_min":0,"x_max":397,"o":"m 0 595 l 0 793 l 198 793 l 198 595 l 0 595 m 198 793 l 198 992 l 0 992 l 0 1389 l 397 1389 l 397 793 l 198 793 z "},"‚":{"ha":595,"x_min":0,"x_max":397,"o":"m 0 0 l 0 198 l 198 198 l 198 0 l 0 0 m 198 198 l 198 397 l 0 397 l 0 793 l 397 793 l 397 198 l 198 198 z "},"‛":{"ha":595,"x_min":0,"x_max":397,"o":"m 198 595 l 198 793 l 397 793 l 397 595 l 198 595 m 0 793 l 0 1389 l 397 1389 l 397 992 l 198 992 l 198 793 l 0 793 z "},"“":{"ha":1190,"x_min":0,"x_max":992,"o":"m 0 595 l 0 1190 l 198 1190 l 198 992 l 397 992 l 397 595 l 0 595 m 595 595 l 595 1190 l 793 1190 l 793 992 l 992 992 l 992 595 l 595 595 m 198 1190 l 198 1389 l 397 1389 l 397 1190 l 198 1190 m 793 1190 l 793 1389 l 992 1389 l 992 1190 l 793 1190 z "},"”":{"ha":1190,"x_min":0,"x_max":992,"o":"m 0 595 l 0 793 l 198 793 l 198 595 l 0 595 m 595 595 l 595 793 l 793 793 l 793 595 l 595 595 m 198 793 l 198 992 l 0 992 l 0 1389 l 397 1389 l 397 793 l 198 793 m 793 793 l 793 992 l 595 992 l 595 1389 l 992 1389 l 992 793 l 793 793 z "},"„":{"ha":1190,"x_min":0,"x_max":992,"o":"m 0 0 l 0 198 l 198 198 l 198 0 l 0 0 m 595 0 l 595 198 l 793 198 l 793 0 l 595 0 m 198 198 l 198 397 l 0 397 l 0 793 l 397 793 l 397 198 l 198 198 m 793 198 l 793 397 l 595 397 l 595 793 l 992 793 l 992 198 l 793 198 z "},"†":{"ha":1389,"x_min":0,"x_max":1190,"o":"m 397 0 l 397 793 l 0 793 l 0 992 l 397 992 l 397 1389 l 793 1389 l 793 992 l 1190 992 l 1190 793 l 793 793 l 793 0 l 397 0 z "},"•":{"ha":992,"x_min":0,"x_max":793,"o":"m 198 198 l 198 397 l 0 397 l 0 793 l 198 793 l 198 992 l 595 992 l 595 793 l 793 793 l 793 397 l 595 397 l 595 198 l 198 198 z "},"…":{"ha":1587,"x_min":0,"x_max":1389,"o":"m 0 0 l 0 397 l 198 397 l 198 0 l 0 0 m 397 0 l 397 397 l 793 397 l 793 0 l 397 0 m 992 0 l 992 397 l 1389 397 l 1389 0 l 992 0 z "},"‹":{"ha":992,"x_min":0,"x_max":793,"o":"m 397 198 l 397 397 l 198 397 l 198 595 l 0 595 l 0 793 l 198 793 l 198 992 l 397 992 l 397 1190 l 793 1190 l 793 992 l 595 992 l 595 793 l 397 793 l 397 595 l 595 595 l 595 397 l 793 397 l 793 198 l 397 198 z "},"›":{"ha":992,"x_min":0,"x_max":793,"o":"m 0 198 l 0 397 l 198 397 l 198 595 l 397 595 l 397 793 l 198 793 l 198 992 l 0 992 l 0 1190 l 397 1190 l 397 992 l 595 992 l 595 793 l 793 793 l 793 595 l 595 595 l 595 397 l 397 397 l 397 198 l 0 198 z "},"€":{"ha":1587,"x_min":0,"x_max":1389,"o":"m 992 397 l 595 397 l 595 198 l 992 198 l 992 397 m 992 992 l 992 1190 l 595 1190 l 595 992 l 992 992 m 992 397 l 1389 397 l 1389 198 l 1190 198 l 1190 0 l 397 0 l 397 198 l 198 198 l 198 397 l 0 397 l 0 595 l 198 595 l 198 793 l 0 793 l 0 992 l 198 992 l 198 1190 l 397 1190 l 397 1389 l 1190 1389 l 1190 1190 l 1389 1190 l 1389 992 l 992 992 l 992 793 l 595 793 l 595 595 l 992 595 l 992 397 z "},"™":{"ha":1587,"x_min":0,"x_max":1389,"o":"m 198 595 l 198 1190 l 0 1190 l 0 1389 l 793 1389 l 793 1190 l 1190 1190 l 1190 1389 l 1389 1389 l 1389 595 l 1190 595 l 1190 992 l 793 992 l 793 595 l 595 595 l 595 1190 l 397 1190 l 397 595 l 198 595 z "}}}
